HIERARCHY
ROOT Hips
{
	OFFSET -0.001795 -0.223333 0.028219
	CHANNELS 6 Xposition Yposition Zposition Zrotation Yrotation Xrotation 
	JOINT LeftUpLeg
	{
		OFFSET 0.069520 -0.091406 -0.006815
		CHANNELS 3 Zrotation Yrotation Xrotation
		JOINT LeftLeg
		{
			OFFSET 0.034277 -0.375199 -0.004496
			CHANNELS 3 Zrotation Yrotation Xrotation
			JOINT LeftFoot
			{
				OFFSET -0.013596 -0.397961 -0.043693
				CHANNELS 3 Zrotation Yrotation Xrotation
				JOINT LeftToe
				{
					OFFSET 0.026358 -0.055791 0.119288
					CHANNELS 3 Zrotation Yrotation Xrotation
					End Site
					{
						OFFSET 0.000000 0.000000 0.000000
					}
				}
			}
		}
	}
	JOINT RightUpLeg
	{
		OFFSET -0.067670 -0.090522 -0.004320
		CHANNELS 3 Zrotation Yrotation Xrotation
		JOINT RightLeg
		{
			OFFSET -0.038290 -0.382569 -0.008850
			CHANNELS 3 Zrotation Yrotation Xrotation
			JOINT RightFoot
			{
				OFFSET 0.015774 -0.398415 -0.042312
				CHANNELS 3 Zrotation Yrotation Xrotation
				JOINT RightToe
				{
					OFFSET -0.025372 -0.048144 0.123348
					CHANNELS 3 Zrotation Yrotation Xrotation
					End Site
					{
						OFFSET 0.000000 0.000000 0.000000
					}
				}
			}
		}
	}
	JOINT Spine
	{
		OFFSET -0.002533 0.108963 -0.026696
		CHANNELS 3 Zrotation Yrotation Xrotation
		JOINT Spine1
		{
			OFFSET 0.005487 0.135180 0.001092
			CHANNELS 3 Zrotation Yrotation Xrotation
			JOINT Spine2
			{
				OFFSET 0.001457 0.052922 0.025425
				CHANNELS 3 Zrotation Yrotation Xrotation
				JOINT Neck
				{
					OFFSET -0.002778 0.213870 -0.042857
					CHANNELS 3 Zrotation Yrotation Xrotation
					JOINT Head
					{
						OFFSET 0.005152 0.064970 0.051349
						CHANNELS 3 Zrotation Yrotation Xrotation
						End Site
						{
							OFFSET 0.000000 0.000000 0.000000
						}
					}
				}
				JOINT LeftShoulder
				{
					OFFSET 0.078845 0.121749 -0.034090
					CHANNELS 3 Zrotation Yrotation Xrotation
					JOINT LeftArm
					{
						OFFSET 0.090977 0.030469 -0.008868
						CHANNELS 3 Zrotation Yrotation Xrotation
						JOINT LeftForeArm
						{
							OFFSET 0.259612 -0.012772 -0.027456
							CHANNELS 3 Zrotation Yrotation Xrotation
							JOINT LeftHand
							{
								OFFSET 0.249234 0.008986 -0.001171
								CHANNELS 3 Zrotation Yrotation Xrotation
								End Site
								{
									OFFSET 0.000000 0.000000 0.000000
								}
							}
						}
					}
				}
				JOINT RightShoulder
				{
					OFFSET -0.081759 0.118833 -0.038615
					CHANNELS 3 Zrotation Yrotation Xrotation
					JOINT RightArm
					{
						OFFSET -0.096012 0.032551 -0.009143
						CHANNELS 3 Zrotation Yrotation Xrotation
						JOINT RightForeArm
						{
							OFFSET -0.253742 -0.013329 -0.021401
							CHANNELS 3 Zrotation Yrotation Xrotation
							JOINT RightHand
							{
								OFFSET -0.255298 0.007772 -0.005559
								CHANNELS 3 Zrotation Yrotation Xrotation
								End Site
								{
									OFFSET 0.000000 0.000000 0.000000
								}
							}
						}
					}
				}
			}
		}
	}
}
MOTION
Frames: 7
Frame Time: 0.050000
0.064362 0.947944 -0.051009 4.304205 -8.275518 7.020189 5.335446 -0.411382 -7.923979 -5.693334 0.774241 2.038662 8.204149 17.039600 21.241274 0.000000 0.000000 0.000000 -15.475343 0.498356 -22.773187 4.729629 -0.229365 15.481696 5.726008 4.927455 12.720140 0.000000 0.000000 0.000000 19.908082 -5.544517 26.325862 0.216372 0.187843 -17.883101 5.880439 0.213117 20.408563 15.578075 -12.740261 -5.633142 0.000000 0.000000 0.000000 10.089989 -17.567030 4.637003 -20.891940 -31.681811 1.432267 95.510982 -79.654532 -78.025809 0.000000 0.000000 0.000000 16.931125 16.071545 6.137495 36.059066 44.126026 7.709928 8.830889 45.637253 5.080401 0.000000 0.000000 0.000000 
0.065245 0.948161 -0.051490 4.158961 -8.313008 7.019696 5.382965 -0.412175 -8.074598 -5.599753 0.766746 2.284739 8.250050 17.093745 21.218598 0.000000 0.000000 0.000000 -15.419585 0.507337 -23.082992 4.934164 -0.264458 15.890680 5.656171 4.591609 13.031840 0.000000 0.000000 0.000000 19.899451 -5.618880 26.765038 0.195687 0.200916 -18.226664 6.038005 0.268531 20.665785 15.716087 -12.720843 -6.204023 0.000000 0.000000 0.000000 10.497216 -17.640424 4.582318 -20.489309 -31.971844 1.400431 87.774764 -80.478687 -71.399638 0.000000 0.000000 0.000000 17.639093 16.407334 6.363652 36.221595 44.607782 7.905055 7.893055 45.866368 4.757284 0.000000 0.000000 0.000000 
0.066265 0.948026 -0.051677 4.012851 -8.346096 7.051645 5.405416 -0.409846 -8.073592 -5.482521 0.748311 2.243097 8.304937 17.161068 21.099678 0.000000 0.000000 0.000000 -15.476826 0.503501 -23.273242 5.241306 -0.331514 15.924562 5.697832 4.346847 13.564870 0.000000 0.000000 0.000000 19.958804 -5.696746 27.117761 0.101434 0.233544 -18.529087 6.256174 0.378225 20.761564 15.952758 -12.795947 -6.685977 0.000000 0.000000 0.000000 10.877563 -17.778221 4.555897 -20.487835 -32.192551 1.429102 79.320672 -81.186408 -64.077974 0.000000 0.000000 0.000000 18.332726 16.629951 6.542610 36.459172 45.057515 8.133417 6.741394 45.558188 4.282970 0.000000 0.000000 0.000000 
0.067340 0.947715 -0.051534 3.771093 -8.565424 6.941631 5.399156 -0.395185 -7.808300 -5.185280 0.704188 2.133230 8.473854 17.360346 20.932417 0.000000 0.000000 0.000000 -15.432172 0.525320 -23.417400 5.589827 -0.395981 16.185994 5.753861 4.231090 13.892360 0.000000 0.000000 0.000000 20.077331 -5.761051 27.472961 0.371977 0.145840 -18.384795 6.177715 0.570174 20.532239 15.994199 -12.785128 -6.721991 0.000000 0.000000 0.000000 11.294330 -17.802035 4.500346 -20.638378 -32.282159 1.482654 70.574617 -81.726110 -56.424958 0.000000 0.000000 0.000000 18.507140 17.141649 6.846250 36.959686 45.494485 8.480164 5.510504 45.257184 3.771889 0.000000 0.000000 0.000000 
0.068529 0.947593 -0.051009 3.583683 -8.878407 6.964163 5.467105 -0.374879 -7.491286 -5.151618 0.695366 1.720329 8.659577 17.572682 20.896927 0.000000 0.000000 0.000000 -15.275653 0.574254 -23.426293 5.716294 -0.411809 16.094884 5.643152 3.977686 13.877560 0.000000 0.000000 0.000000 20.227799 -5.806156 27.702216 0.415436 0.126834 -18.431614 6.209617 0.597820 20.405403 15.889492 -12.569296 -7.113939 0.000000 0.000000 0.000000 11.560386 -17.742772 4.438415 -20.871293 -32.125138 1.526807 63.855653 -82.272226 -50.601691 0.000000 0.000000 0.000000 18.440158 17.283025 6.872501 38.064998 45.862974 9.012015 4.363993 44.527171 3.246996 0.000000 0.000000 0.000000 
0.069858 0.947316 -0.050171 3.510288 -9.310657 6.955227 5.374140 -0.362709 -7.163476 -5.095850 0.686244 1.377031 8.911614 17.862153 20.868329 0.000000 0.000000 0.000000 -15.302135 0.608212 -23.351025 5.796150 -0.414413 15.930866 5.727821 4.188902 13.710810 0.000000 0.000000 0.000000 20.155968 -5.815820 28.144750 0.712771 0.041395 -18.623970 6.063499 0.331939 20.402153 15.432373 -12.125457 -7.427211 0.000000 0.000000 0.000000 11.584749 -17.383587 4.317246 -21.659678 -31.590404 1.609451 52.846193 -83.257901 -40.970643 0.000000 0.000000 0.000000 18.061348 17.753616 6.971488 39.392681 46.378073 9.670071 3.618077 43.734476 2.863230 0.000000 0.000000 0.000000 
0.071310 0.947165 -0.049077 3.445672 -9.858109 7.033485 5.317344 -0.348045 -6.845746 -5.159071 0.694252 0.929286 9.213032 18.204427 20.938778 0.000000 0.000000 0.000000 -15.103032 0.682750 -23.447727 5.403075 -0.311889 15.597710 6.028547 4.448653 14.114586 0.000000 0.000000 0.000000 20.197254 -5.812187 28.405590 0.656565 0.045434 -18.655687 6.237038 -0.054508 20.265603 15.120661 -11.733144 -8.069869 0.000000 0.000000 0.000000 11.493790 -17.310893 4.281611 -22.779619 -30.419937 1.650281 46.003519 -84.097718 -34.898129 0.000000 0.000000 0.000000 18.233988 18.097772 6.964793 39.968891 46.561917 9.979055 3.785866 43.281859 2.830278 0.000000 0.000000 0.000000 
